<?xml version="1.0" encoding="UTF-8"?>
<svg id="Layer_1" data-name="Layer 1" xmlns="http://www.w3.org/2000/svg" viewBox="0 0 585.66 132.78">
  <defs>
    <style>
      .cls-1 {
        fill: red;
      }

      .cls-1, .cls-2 {
        fill-rule: evenodd;
      }

      .cls-2 {
        fill: #808184;
      }
    </style>
  </defs>
  <path class="cls-1" d="M26.69,123.61v-.09c0-2.1-.52-3.74-1.57-4.92-1.04-1.18-2.48-2.12-4.29-2.81.56-.3,1.09-.66,1.58-1.08.49-.42.92-.91,1.29-1.46.38-.55.67-1.18.89-1.87.22-.69.34-1.48.34-2.38v-.09c0-2.49-.92-4.46-2.76-5.93-1.84-1.47-4.37-2.2-7.6-2.2H0v31.45h14.94c1.76,0,3.37-.18,4.82-.54,1.45-.36,2.69-.9,3.72-1.62,1.03-.72,1.82-1.62,2.37-2.7.55-1.08.83-2.34.83-3.77M18.11,110.18c0,1.17-.45,2.01-1.35,2.54-.9.52-2.11.79-3.64.79h-6.38v-6.65h6.83c1.47,0,2.59.28,3.37.83.78.55,1.17,1.36,1.17,2.4v.09ZM19.86,122.76c0,1.17-.43,2.03-1.3,2.58-.87.55-2.07.83-3.59.83H6.74v-6.92h8c1.8,0,3.1.31,3.91.92.81.61,1.21,1.45,1.21,2.49v.09ZM59.63,132.24l-7.68-11.23c2.01-.75,3.63-1.93,4.88-3.53,1.24-1.6,1.86-3.68,1.86-6.22v-.09c0-3.27-1.04-5.81-3.12-7.64-2.08-1.83-5-2.74-8.74-2.74h-14.38v31.45h6.92v-10.07h5.44l6.74,10.07h8.09ZM51.67,111.62c0,1.35-.46,2.43-1.37,3.24-.91.81-2.22,1.21-3.93,1.21h-7.01v-9.03h6.87c1.71,0,3.04.38,4,1.12.96.75,1.44,1.87,1.44,3.37v.09ZM95.57,132.24l-13.48-31.68h-6.38l-13.48,31.68h7.05l2.88-7.05h13.3l2.88,7.05h7.23ZM82.99,119.08h-8.36l4.18-10.2,4.18,10.2ZM128.37,132.24v-31.45h-6.83v19.37l-14.74-19.37h-6.38v31.45h6.83v-20l15.23,20h5.89ZM164.91,116.51v-.09c0-2.22-.41-4.28-1.21-6.18-.81-1.9-1.95-3.56-3.44-4.97-1.48-1.41-3.25-2.51-5.3-3.3-2.05-.79-4.31-1.19-6.76-1.19h-12.27v31.45h12.27c2.46,0,4.71-.4,6.76-1.21,2.05-.81,3.82-1.92,5.3-3.32,1.48-1.41,2.63-3.07,3.44-4.99.81-1.92,1.21-3.98,1.21-6.2ZM157.67,116.6c0,1.41-.23,2.68-.7,3.82-.46,1.14-1.11,2.13-1.93,2.96-.82.84-1.82,1.48-2.99,1.93-1.17.45-2.46.67-3.86.67h-5.35v-18.96h5.35c1.41,0,2.7.23,3.86.7,1.17.46,2.17,1.12,2.99,1.96.82.84,1.47,1.84,1.93,3.01.46,1.17.7,2.44.7,3.82v.09ZM203.1,116.51v-.09c0-2.25-.41-4.35-1.24-6.31-.82-1.96-1.98-3.67-3.46-5.12-1.48-1.45-3.24-2.61-5.28-3.46-2.04-.85-4.27-1.28-6.7-1.28s-4.67.43-6.72,1.28c-2.05.85-3.82,2.02-5.3,3.5-1.48,1.48-2.64,3.2-3.48,5.17-.84,1.96-1.26,4.07-1.26,6.31v.09c0,2.25.41,4.35,1.24,6.31.82,1.96,1.98,3.67,3.46,5.12,1.48,1.45,3.24,2.61,5.28,3.46,2.04.85,4.27,1.28,6.7,1.28s4.67-.43,6.72-1.28c2.05-.85,3.82-2.02,5.3-3.5,1.48-1.48,2.64-3.2,3.48-5.17.84-1.96,1.26-4.07,1.26-6.31ZM195.86,116.6c0,1.35-.23,2.61-.7,3.8-.46,1.18-1.11,2.22-1.93,3.12-.82.9-1.82,1.6-2.99,2.11-1.17.51-2.44.76-3.82.76s-2.69-.26-3.84-.79c-1.15-.53-2.16-1.24-3.01-2.14-.85-.9-1.51-1.95-1.98-3.15-.46-1.2-.7-2.47-.7-3.82v-.09c0-1.35.23-2.61.7-3.8.46-1.18,1.11-2.22,1.93-3.12.82-.9,1.81-1.6,2.97-2.11,1.15-.51,2.43-.76,3.84-.76s2.65.26,3.82.79c1.17.53,2.18,1.24,3.03,2.13.85.9,1.51,1.95,1.98,3.15.46,1.2.7,2.47.7,3.82v.09ZM237.2,132.24v-31.45h-6.83v19.37l-14.74-19.37h-6.38v31.45h6.83v-20l15.23,20h5.89Z"/>
  <path class="cls-2" d="M285.87,127.16l-4.4-4.45c-1.23,1.14-2.46,2.04-3.71,2.7-1.24.66-2.76.99-4.56.99-1.35,0-2.58-.26-3.71-.79-1.12-.52-2.08-1.24-2.88-2.14-.79-.9-1.41-1.95-1.86-3.14-.45-1.2-.67-2.47-.67-3.82v-.09c0-1.35.23-2.61.67-3.8.45-1.18,1.08-2.22,1.89-3.12.81-.9,1.77-1.6,2.9-2.11,1.12-.51,2.34-.76,3.66-.76,1.59,0,3.02.31,4.29.94,1.27.63,2.52,1.5,3.75,2.61l4.4-5.08c-.72-.72-1.5-1.38-2.34-1.98-.84-.6-1.75-1.11-2.74-1.53-.99-.42-2.09-.75-3.3-.99-1.21-.24-2.55-.36-4.02-.36-2.43,0-4.64.43-6.65,1.28-2.01.85-3.73,2.02-5.17,3.5-1.44,1.48-2.56,3.21-3.37,5.17-.81,1.96-1.21,4.07-1.21,6.31v.09c0,2.25.4,4.36,1.21,6.34.81,1.98,1.93,3.69,3.37,5.14,1.44,1.45,3.14,2.6,5.12,3.44,1.98.84,4.12,1.26,6.43,1.26,1.53,0,2.9-.13,4.13-.38,1.23-.25,2.36-.63,3.39-1.12,1.03-.49,1.98-1.09,2.85-1.77.87-.69,1.71-1.47,2.52-2.34M322.04,132.24l-13.48-31.68h-6.38l-13.48,31.68h7.06l2.87-7.05h13.3l2.88,7.05h7.23ZM309.45,119.08h-8.36l4.18-10.2,4.18,10.2ZM354.07,132.24l-7.68-11.23c2.01-.75,3.63-1.93,4.88-3.53,1.24-1.6,1.86-3.68,1.86-6.22v-.09c0-3.26-1.04-5.81-3.12-7.64-2.08-1.83-5-2.74-8.74-2.74h-14.38v31.45h6.92v-10.06h5.44l6.74,10.06h8.09ZM346.12,111.62c0,1.35-.46,2.43-1.37,3.23-.91.81-2.22,1.21-3.93,1.21h-7.01v-9.03h6.88c1.71,0,3.04.37,4,1.12.96.75,1.44,1.87,1.44,3.37v.09ZM386.56,132.24l-7.68-11.23c2.01-.75,3.63-1.93,4.88-3.53,1.24-1.6,1.86-3.68,1.86-6.22v-.09c0-3.26-1.04-5.81-3.12-7.64-2.08-1.83-4.99-2.74-8.74-2.74h-14.38v31.45h6.92v-10.06h5.44l6.74,10.06h8.09ZM378.61,111.62c0,1.35-.46,2.43-1.37,3.23-.91.81-2.22,1.21-3.93,1.21h-7.01v-9.03h6.87c1.71,0,3.04.37,4,1.12.96.75,1.44,1.87,1.44,3.37v.09ZM432.53,132.24l-7.68-11.23c2.01-.75,3.63-1.93,4.88-3.53,1.24-1.6,1.87-3.68,1.87-6.22v-.09c0-3.26-1.04-5.81-3.12-7.64-2.08-1.83-4.99-2.74-8.74-2.74h-14.38v31.45h6.92v-10.06h5.44l6.74,10.06h8.09ZM424.57,111.62c0,1.35-.46,2.43-1.37,3.23-.91.81-2.22,1.21-3.93,1.21h-7.01v-9.03h6.87c1.71,0,3.04.37,4,1.12.96.75,1.44,1.87,1.44,3.37v.09ZM468.47,132.24l-13.48-31.68h-6.38l-13.48,31.68h7.05l2.87-7.05h13.3l2.88,7.05h7.23ZM455.89,119.08h-8.36l4.18-10.2,4.18,10.2ZM500.96,127.16l-4.4-4.45c-1.23,1.14-2.46,2.04-3.71,2.7-1.24.66-2.76.99-4.56.99-1.35,0-2.58-.26-3.71-.79-1.12-.52-2.08-1.24-2.88-2.14-.79-.9-1.42-1.95-1.86-3.14-.45-1.2-.67-2.47-.67-3.82v-.09c0-1.35.22-2.61.67-3.8.45-1.18,1.08-2.22,1.89-3.12.81-.9,1.78-1.6,2.9-2.11,1.12-.51,2.34-.76,3.66-.76,1.59,0,3.02.31,4.29.94,1.27.63,2.52,1.5,3.75,2.61l4.4-5.08c-.72-.72-1.5-1.38-2.34-1.98-.84-.6-1.75-1.11-2.74-1.53-.99-.42-2.09-.75-3.3-.99-1.21-.24-2.55-.36-4.02-.36-2.43,0-4.64.43-6.65,1.28-2.01.85-3.73,2.02-5.17,3.5-1.44,1.48-2.56,3.21-3.37,5.17-.81,1.96-1.21,4.07-1.21,6.31v.09c0,2.25.4,4.36,1.21,6.34.81,1.98,1.93,3.69,3.37,5.14,1.44,1.45,3.14,2.6,5.12,3.44,1.98.84,4.12,1.26,6.43,1.26,1.53,0,2.91-.13,4.13-.38,1.23-.25,2.36-.63,3.39-1.12,1.03-.49,1.99-1.09,2.85-1.77.87-.69,1.71-1.47,2.52-2.34ZM513.72,100.79h-6.92v31.45h6.92v-31.45ZM549.53,132.24v-31.45h-6.83v19.37l-14.74-19.37h-6.38v31.45h6.83v-20l15.23,20h5.89ZM585.66,127.79v-13.66h-13.66v5.98h6.96v4.52c-1.77,1.27-3.94,1.9-6.51,1.9-1.41,0-2.69-.25-3.84-.74-1.15-.5-2.16-1.2-3.01-2.1-.85-.9-1.51-1.95-1.98-3.18-.46-1.21-.7-2.55-.7-3.98v-.09c0-1.35.23-2.62.7-3.81.46-1.19,1.11-2.22,1.93-3.11.82-.88,1.78-1.6,2.87-2.12,1.09-.52,2.27-.79,3.53-.79.9,0,1.72.07,2.47.22.75.15,1.45.36,2.09.63.64.27,1.27.6,1.86.99.6.39,1.2.84,1.8,1.35l4.36-5.26c-.81-.69-1.65-1.3-2.52-1.84-.87-.54-1.8-.99-2.79-1.35-.99-.36-2.06-.64-3.21-.83-1.15-.2-2.43-.29-3.84-.29-2.4,0-4.6.43-6.6,1.28-2.01.85-3.74,2.02-5.21,3.5-1.47,1.48-2.61,3.21-3.44,5.17-.82,1.96-1.24,4.07-1.24,6.31v.09c0,2.34.4,4.49,1.21,6.47.81,1.98,1.94,3.69,3.39,5.12,1.45,1.44,3.19,2.56,5.21,3.37,2.02.81,4.26,1.21,6.72,1.21,2.88,0,5.43-.49,7.66-1.46,2.23-.97,4.16-2.15,5.77-3.53Z"/>
  <path class="cls-1" d="M233.49,2.61c-.87-1.64-2.45-2.6-4.2-2.6H42.19l3.1,7.97L10.05,72.46,0,80.88h165.97c17.02,0,32.73-9.22,41.05-24.09l4.27-7.65-6.74-6.41,14.19-7.24,14.73-27.73c.9-1.62.9-3.54.02-5.16M178.87,18.59l-7.18,13.19h-81.68l-9.58,17.27h81.83l-7.93,14.56H63.58l25.34-46.4c8.24,0,89.2-.96,89.95.46.17.29.17.64,0,.92Z"/>
  <path class="cls-1" d="M476.45,17.19h29.81s23.38,0,23.38,0c2.65,0-4.73,11.43-6.49,14.67l-141.03-.07-14.59,26.68h50.38l5.1-9.33h53.64l37.27,31.73h48.65l-30.42-25.92,37.54-19.16,15.31-28.01c.88-1.62.89-3.54.02-5.16-.89-1.64-2.45-2.6-4.22-2.6h-94.96s-9.38,17.18-9.38,17.18ZM462.05,17.19L471.44,0h7.2l-9.38,17.18h-7.2ZM390.08,17.19l9.39-17.19h7.2l-9.39,17.19h-7.2ZM404.47,17.19l9.39-17.19h7.2l-9.39,17.19h-7.2ZM418.87,17.19l9.38-17.19h7.2l-9.39,17.19h-7.2ZM433.26,17.19L442.65,0h7.2l-9.38,17.19h-7.2ZM447.66,17.19L457.04,0h7.2s-9.38,17.19-9.38,17.19h-7.2Z"/>
  <path class="cls-2" d="M240.92.01l3.1,7.99.1-.1-29.88,54.68c-4.5,8.24,1.46,18.29,10.86,18.29h79.81l8.87-16.24-51.92-.12,25.91-47.31h95.12s9.39-17.2,9.39-17.2c-38.65,0-112.69,0-151.35.01M398.47,80.88h7.19l8.74-16-7.19-.02-8.74,16.02ZM312.1,80.88l8.86-16.22,7.18.02-8.85,16.21h-7.19ZM326.5,80.88l8.84-16.19,7.18.02-8.83,16.17h-7.2ZM340.9,80.88l8.82-16.16,7.18.02-8.81,16.14h-7.19ZM355.29,80.88l8.8-16.12,7.18.02-8.79,16.1h-7.2ZM369.68,80.88l8.78-16.09,7.18.02-8.77,16.07h-7.19ZM384.08,80.88l8.76-16.05,7.18.02-8.75,16.03h-7.2Z"/>
</svg>